<svg width="106" height="44" viewBox="0 0 106 44" fill="none" xmlns="http://www.w3.org/2000/svg">
<rect x="1.5" y="1.5" width="103" height="41" rx="6.5" fill="white"/>
<path d="M26.814 21.322C26.814 19.826 27.1587 18.484 27.848 17.296C28.552 16.108 29.498 15.184 30.686 14.524C31.8887 13.8493 33.2013 13.512 34.624 13.512C36.252 13.512 37.6967 13.9153 38.958 14.722C40.234 15.514 41.158 16.6433 41.73 18.11H38.716C38.32 17.3033 37.77 16.702 37.066 16.306C36.362 15.91 35.548 15.712 34.624 15.712C33.612 15.712 32.71 15.9393 31.918 16.394C31.126 16.8487 30.5027 17.5013 30.048 18.352C29.608 19.2027 29.388 20.1927 29.388 21.322C29.388 22.4513 29.608 23.4413 30.048 24.292C30.5027 25.1427 31.126 25.8027 31.918 26.272C32.71 26.7267 33.612 26.954 34.624 26.954C35.548 26.954 36.362 26.756 37.066 26.36C37.77 25.964 38.32 25.3627 38.716 24.556H41.73C41.158 26.0227 40.234 27.152 38.958 27.944C37.6967 28.736 36.252 29.132 34.624 29.132C33.1867 29.132 31.874 28.802 30.686 28.142C29.498 27.4673 28.552 26.536 27.848 25.348C27.1587 24.16 26.814 22.818 26.814 21.322ZM47.1736 12.72V29H44.6656V12.72H47.1736ZM51.7424 15.272C51.2877 15.272 50.9064 15.118 50.5984 14.81C50.2904 14.502 50.1364 14.1207 50.1364 13.666C50.1364 13.2113 50.2904 12.83 50.5984 12.522C50.9064 12.214 51.2877 12.06 51.7424 12.06C52.1824 12.06 52.5564 12.214 52.8644 12.522C53.1724 12.83 53.3264 13.2113 53.3264 13.666C53.3264 14.1207 53.1724 14.502 52.8644 14.81C52.5564 15.118 52.1824 15.272 51.7424 15.272ZM52.9744 16.878V29H50.4664V16.878H52.9744ZM55.4312 22.928C55.4312 21.6813 55.6805 20.5887 56.1792 19.65C56.6925 18.6967 57.3965 17.9633 58.2912 17.45C59.1859 16.9367 60.2125 16.68 61.3712 16.68C62.8379 16.68 64.0479 17.032 65.0012 17.736C65.9692 18.4253 66.6219 19.4153 66.9592 20.706H64.2532C64.0332 20.1047 63.6812 19.6353 63.1972 19.298C62.7132 18.9607 62.1045 18.792 61.3712 18.792C60.3445 18.792 59.5232 19.1587 58.9072 19.892C58.3059 20.6107 58.0052 21.6227 58.0052 22.928C58.0052 24.2333 58.3059 25.2527 58.9072 25.986C59.5232 26.7193 60.3445 27.086 61.3712 27.086C62.8232 27.086 63.7839 26.448 64.2532 25.172H66.9592C66.6072 26.404 65.9472 27.3867 64.9792 28.12C64.0112 28.8387 62.8085 29.198 61.3712 29.198C60.2125 29.198 59.1859 28.9413 58.2912 28.428C57.3965 27.9 56.6925 27.1667 56.1792 26.228C55.6805 25.2747 55.4312 24.1747 55.4312 22.928ZM74.2546 22.95L79.8426 29H76.4546L71.9666 23.786V29H69.4586V12.72H71.9666V22.18L76.3666 16.878H79.8426L74.2546 22.95Z" fill="black"/>
<rect x="1.5" y="1.5" width="103" height="41" rx="6.5" stroke="black" stroke-width="3"/>
</svg>
