<svg width="55" height="55" viewBox="0 0 55 55" fill="none" xmlns="http://www.w3.org/2000/svg">
<circle cx="27.5" cy="27.5" r="25" fill="white" stroke="#3A3A3A" stroke-width="5"/>
<path d="M19.7863 23.3466C19.7863 19.1406 23.3042 15.7308 27.6436 15.7308C31.983 15.7308 35.5009 19.1406 35.5009 23.3466C35.5009 24.3671 35.2938 25.3405 34.918 26.2294L35.0545 26.2578C35.5952 26.3699 36.1155 26.5599 36.5981 26.8214C37.0424 25.7469 37.2867 24.5748 37.2867 23.3466C37.2867 18.1845 32.9694 14 27.6436 14C22.3178 14 18.0005 18.1845 18.0005 23.3466C18.0005 25.1771 18.5434 26.8844 19.482 28.3265C20.0501 28.0572 20.6638 27.8898 21.2935 27.8322C20.3117 26.5304 19.7837 24.9591 19.7863 23.3466ZM34.0723 23.3466C34.0723 24.2694 33.8652 25.1452 33.4937 25.9331L32.2866 25.6825V23.3466C32.2826 22.7556 32.1585 22.1712 31.9215 21.6266C31.6845 21.0821 31.3392 20.5882 30.9052 20.1731C30.4712 19.7579 29.9572 19.4297 29.3923 19.2071C28.8275 18.9845 28.223 18.8719 27.6132 18.8758C27.0035 18.8796 26.4006 18.9999 25.8388 19.2296C25.277 19.4593 24.7674 19.7941 24.3391 20.2147C23.9107 20.6353 23.5721 21.1335 23.3424 21.681C23.1128 22.2285 22.9967 22.8144 23.0006 23.4054V27.6564C22.2735 26.9204 21.7436 26.0228 21.4575 25.0423C21.1714 24.0617 21.1378 23.0282 21.3596 22.0321C21.5814 21.036 22.0518 20.1079 22.7297 19.329C23.4075 18.5501 24.2722 17.9442 25.2477 17.5644C26.2233 17.1847 27.2801 17.0426 28.3255 17.1507C29.3709 17.2588 30.373 17.6137 31.244 18.1844C32.115 18.7551 32.8283 19.5242 33.3214 20.4241C33.8145 21.3241 34.0723 22.3276 34.0723 23.3466ZM26.215 23.3466C26.215 22.9793 26.3655 22.6271 26.6334 22.3674C26.9013 22.1078 27.2647 21.9619 27.6436 21.9619C28.0225 21.9619 28.3859 22.1078 28.6538 22.3674C28.9217 22.6271 29.0722 22.9793 29.0722 23.3466V27.5006C29.0722 27.9091 29.3665 28.2615 29.7779 28.3466L34.3802 29.3041C34.6891 29.3684 34.9813 29.4932 35.2388 29.6708C35.4962 29.8484 35.7136 30.0751 35.8775 30.3369C36.0414 30.5988 36.1484 30.8903 36.192 31.1937C36.2356 31.4971 36.2148 31.8059 36.1309 32.1012L34.4916 37.8794C34.4256 38.112 34.2894 38.3202 34.1006 38.4774C33.9117 38.6345 33.6788 38.7334 33.4316 38.7614L28.9729 39.2675C28.9178 39.2716 28.8631 39.2564 28.8186 39.2246C28.7373 39.171 28.6728 39.0968 28.6322 39.01C27.6072 36.8831 24.9921 34.5693 19.852 32.2805C19.9369 32.0298 20.0729 31.7983 20.2521 31.5998C20.4313 31.4012 20.6499 31.2397 20.8949 31.1248C21.1399 31.0099 21.4062 30.944 21.6781 30.9311C21.9499 30.9182 22.2216 30.9584 22.4771 31.0495L25.0135 31.9544C25.1485 32.0026 25.2935 32.0184 25.4361 32.0006C25.5788 31.9828 25.7149 31.9319 25.8329 31.8521C25.9508 31.7724 26.0472 31.6662 26.1137 31.5426C26.1803 31.419 26.215 31.2817 26.215 31.1423V23.3466ZM27.6436 20.231C26.7911 20.231 25.9735 20.5593 25.3707 21.1435C24.7679 21.7278 24.4292 22.5203 24.4292 23.3466V29.9016L23.0935 29.4253C20.852 28.6256 18.4127 29.9985 18.0184 32.2826C17.9688 32.5747 18.0202 32.8746 18.1646 33.1355C18.309 33.3965 18.5384 33.6038 18.817 33.7254C24.0264 36.0011 26.2421 38.1404 27.0143 39.7418C27.3636 40.4667 28.1736 41.1009 29.1808 40.9866L33.6394 40.4805C34.2398 40.4124 34.8056 40.1722 35.2642 39.7906C35.7228 39.409 36.0535 38.9033 36.2138 38.3384L37.8531 32.5595C38.0013 32.037 38.0378 31.4907 37.9606 30.9541C37.8833 30.4175 37.6938 29.9018 37.4037 29.4386C37.1136 28.9754 36.729 28.5745 36.2735 28.2604C35.818 27.9464 35.3011 27.7257 34.7545 27.612L30.858 26.8013V23.3466C30.858 22.5203 30.5193 21.7278 29.9165 21.1435C29.3137 20.5593 28.4961 20.231 27.6436 20.231Z" fill="#3A3A3A"/>
</svg>
