<svg width="55" height="55" viewBox="0 0 55 55" fill="none" xmlns="http://www.w3.org/2000/svg">
<circle cx="27.5" cy="27.5" r="25" fill="white" stroke="#3A3A3A" stroke-width="5"/>
<path d="M28.6323 17.5L28.6327 17.5C28.9346 17.4997 29.2218 17.6162 29.4319 17.8201L29.7784 17.463L29.4319 17.8201C29.6413 18.0233 29.757 18.2964 29.7581 18.5786V28.0943C29.7581 28.6738 29.2669 29.172 28.6323 29.172H23.2273H23.0861L22.9658 29.2458L18.5645 31.9466V29.672V29.172H18.0645H15.6258C14.9911 29.172 14.5 28.6738 14.5 28.0943V18.5777C14.5 17.9982 14.9911 17.5 15.6258 17.5L28.6323 17.5Z" stroke="#3A3A3A"/>
<path d="M27.3677 23.6602L27.3673 23.6602C27.0654 23.6599 26.7782 23.7764 26.5681 23.9802L26.2216 23.6231L26.5681 23.9802C26.3587 24.1835 26.243 24.4566 26.2419 24.7388V34.2545C26.2419 34.834 26.7331 35.3322 27.3677 35.3322H32.7727H32.9139L33.0342 35.406L37.4355 38.1067V35.8322V35.3322H37.9355H40.3742C41.0089 35.3322 41.5 34.834 41.5 34.2545V24.7378C41.5 24.1583 41.0089 23.6602 40.3742 23.6602L27.3677 23.6602Z" stroke="#3A3A3A"/>
<path d="M21.8226 22.8341C22.0773 22.3834 22.5669 22.1176 22.8514 21.7188C23.1524 21.3006 22.9837 20.5192 22.1303 20.5192C21.5713 20.5192 21.2967 20.9342 21.1809 21.2779L20.3242 20.9245C20.5591 20.2339 21.1975 19.6406 22.127 19.6406C22.9043 19.6406 23.4368 19.9875 23.7081 20.422C23.9396 20.7948 24.0752 21.4919 23.718 22.0106C23.3211 22.5845 22.9407 22.7595 22.7356 23.1291C22.6529 23.2783 22.6198 23.3755 22.6198 23.8554H21.6639C21.6606 23.6025 21.6209 23.1907 21.8226 22.8341ZM22.7918 25.1522C22.7918 25.5088 22.4941 25.8006 22.1303 25.8006C21.7664 25.8006 21.4687 25.5088 21.4687 25.1522C21.4687 24.7956 21.7664 24.5038 22.1303 24.5038C22.4941 24.5038 22.7918 24.7956 22.7918 25.1522Z" fill="#3A3A3A"/>
<path d="M33.8711 25.8008L34.0969 30.0008H34.5485L34.7743 25.8008H33.8711ZM33.8711 31.4008H34.7743V31.9608H33.8711V31.4008Z" fill="#3A3A3A" stroke="#3A3A3A" stroke-width="0.4" stroke-miterlimit="10" stroke-linecap="square"/>
</svg>
