<svg width="55" height="55" viewBox="0 0 55 55" fill="none" xmlns="http://www.w3.org/2000/svg">
<circle cx="27.5" cy="27.5" r="25" fill="white" stroke="#3A3A3A" stroke-width="5"/>
<path d="M31.1992 13C30.4563 13 29.7439 13.2864 29.2187 13.7961C28.6934 14.3058 28.3983 14.9971 28.3983 15.718C28.3983 16.4389 28.6934 17.1302 29.2187 17.6399C29.7439 18.1497 30.4563 18.436 31.1992 18.436C31.942 18.436 32.6544 18.1497 33.1797 17.6399C33.7049 17.1302 34 16.4389 34 15.718C34 14.9971 33.7049 14.3058 33.1797 13.7961C32.6544 13.2864 31.942 13 31.1992 13ZM30.527 21.6433C28.305 21.8245 22.2365 26.5176 22.2365 26.5176C21.863 26.7894 21.9751 26.7712 22.2738 27.2786C22.5726 27.7678 22.5352 27.8041 22.89 27.5685C23.2634 27.333 23.8796 26.9524 24.9066 26.3364C28.8651 23.872 25.5415 29.5617 23.8423 39.1472C23.1701 43.8947 27.5767 41.4485 28.7157 40.7237C29.8361 40.017 32.8423 38.0057 33.1411 37.8064C33.5519 37.5346 33.2531 37.3171 32.9357 36.8641C32.7116 36.5561 32.4875 36.7735 32.4875 36.7735C31.2738 37.5527 29.0518 39.1835 28.7531 38.1506C28.3983 37.1178 30.6763 30.0328 31.9274 25.1586C32.1328 23.9989 32.6929 21.4621 30.527 21.6433Z" fill="#3A3A3A"/>
</svg>
