<svg width="55" height="55" viewBox="0 0 55 55" fill="none" xmlns="http://www.w3.org/2000/svg">
<circle cx="27.5" cy="27.5" r="25" fill="white" stroke="#3A3A3A" stroke-width="5"/>
<path d="M26.8888 33.94C25.1626 33.8584 23.5341 33.1145 22.3417 31.863C21.1493 30.6115 20.4846 28.9485 20.4856 27.2195C20.4856 23.5059 23.5022 20.4878 27.214 20.4878C30.825 20.4878 33.763 23.3263 33.9313 26.8941L31.5763 26.1873C31.393 25.4096 31.0054 24.6949 30.4536 24.1172C29.9018 23.5395 29.2058 23.1197 28.4375 22.9012C27.6693 22.6828 26.8566 22.6735 26.0836 22.8745C25.3106 23.0755 24.6052 23.4794 24.0405 24.0444C23.4757 24.6094 23.072 25.3151 22.8712 26.0885C22.6703 26.8619 22.6795 27.675 22.8979 28.4436C23.1162 29.2122 23.5358 29.9086 24.1132 30.4607C24.6906 31.0128 25.405 31.4005 26.1824 31.5839L26.8888 33.94ZM38.4281 27.2195C38.4281 27.5561 38.4169 27.8927 38.3832 28.2293L36.1741 27.5673C36.1853 27.4551 36.1853 27.3317 36.1853 27.2195C36.1853 22.2605 32.1706 18.2439 27.214 18.2439C22.2574 18.2439 18.2428 22.2605 18.2428 27.2195C18.2428 32.1785 22.2574 36.1951 27.214 36.1951C27.3262 36.1951 27.4495 36.1951 27.5617 36.1839L28.2233 38.3941C27.8869 38.4278 27.5505 38.439 27.214 38.439C21.0239 38.439 16 33.4127 16 27.2195C16 21.0263 21.0239 16 27.214 16C33.4042 16 38.4281 21.0263 38.4281 27.2195ZM34.2004 31.999L38.4281 30.5854L27.214 27.2195L30.5783 38.439L31.9912 34.2093L36.7796 39L39 36.7785L34.2004 31.999Z" fill="#3A3A3A"/>
</svg>
