<svg width="55" height="55" viewBox="0 0 55 55" fill="none" xmlns="http://www.w3.org/2000/svg">
<circle cx="27.5" cy="27.5" r="25" fill="white" stroke="#3A3A3A" stroke-width="5"/>
<path d="M32.0806 16.8675C32.0806 17.3463 32.4692 17.7349 32.948 17.7349H37.0344L28.4303 26.3402V23.8072C28.4303 23.5772 28.3389 23.3565 28.1762 23.1938C28.0135 23.0312 27.7928 22.9398 27.5628 22.9398C27.3327 22.9398 27.1121 23.0312 26.9494 23.1938C26.7867 23.3565 26.6953 23.5772 26.6953 23.8072V28.4337C26.6953 28.9126 27.0839 29.3012 27.5628 29.3012H32.1893C32.4194 29.3012 32.64 29.2098 32.8027 29.0471C32.9654 28.8844 33.0568 28.6638 33.0568 28.4337C33.0568 28.2037 32.9654 27.983 32.8027 27.8203C32.64 27.6577 32.4194 27.5663 32.1893 27.5663H29.6563L38.2616 18.961V23.0485C38.2616 23.2785 38.353 23.4992 38.5157 23.6619C38.6783 23.8246 38.899 23.916 39.129 23.916C39.3591 23.916 39.5798 23.8246 39.7424 23.6619C39.9051 23.4992 39.9965 23.2785 39.9965 23.0485V16.8675C39.9965 16.6374 39.9051 16.4168 39.7424 16.2541C39.5798 16.0914 39.3591 16 39.129 16H32.948C32.718 16 32.4973 16.0914 32.3346 16.2541C32.172 16.4168 32.0806 16.6374 32.0806 16.8675Z" fill="#3A3A3A"/>
<path d="M36.5324 23.1477C36.5581 23.8181 36.8416 24.4527 37.3239 24.9191C37.8063 25.3854 38.4501 25.6475 39.121 25.6506C39.1325 26.4903 39.1325 27.4145 39.1325 28.4335C39.1325 33.8858 39.1325 36.612 37.4381 38.3053C35.7459 39.9997 33.0186 39.9997 27.5663 39.9997C22.1139 39.9997 19.3878 39.9997 17.6933 38.3053C16 36.6131 16 33.8858 16 28.4335C16 22.9811 16 20.2549 17.6933 18.5605C19.3889 16.8672 22.1139 16.8672 27.5663 16.8672C28.5853 16.8672 29.5094 16.8672 30.3491 16.8788C30.3522 17.5497 30.6143 18.1935 31.0806 18.6758C31.547 19.1581 32.1816 19.4416 32.852 19.4673L29.8182 22.5011C29.5312 22.0055 29.0887 21.6185 28.5593 21.3999C28.03 21.1814 27.4433 21.1436 26.8902 21.2924C26.3372 21.4411 25.8487 21.7682 25.5004 22.2228C25.1521 22.6774 24.9635 23.2342 24.9639 23.8069V28.4335C24.9639 29.1237 25.238 29.7856 25.7261 30.2736C26.2141 30.7617 26.8761 31.0359 27.5663 31.0359H32.1928C32.7655 31.0362 33.3223 30.8476 33.7769 30.4993C34.2315 30.151 34.5586 29.6625 34.7074 29.1095C34.8561 28.5564 34.8183 27.9698 34.5998 27.4404C34.3812 26.911 33.9942 26.4685 33.4986 26.1815L36.5324 23.1477Z" fill="#3A3A3A"/>
</svg>
