<svg width="55" height="55" viewBox="0 0 55 55" fill="none" xmlns="http://www.w3.org/2000/svg">
<circle cx="27.5" cy="27.5" r="25" fill="white" stroke="#3A3A3A" stroke-width="5"/>
<path d="M27.5 33.25C29.0908 33.25 30.4471 32.6892 31.5687 31.5675C32.6903 30.4459 33.2508 29.0901 33.25 27.5C33.25 25.9092 32.6892 24.5529 31.5675 23.4313C30.4459 22.3097 29.0901 21.7492 27.5 21.75C25.9092 21.75 24.5529 22.3108 23.4313 23.4324C22.3097 24.5541 21.7492 25.9099 21.75 27.5C21.75 29.0908 22.3108 30.4471 23.4324 31.5687C24.5541 32.6903 25.9099 33.2508 27.5 33.25ZM27.5 39C25.9092 39 24.4142 38.6979 23.015 38.0938C21.6158 37.4897 20.3987 36.6705 19.3637 35.6362C18.3287 34.6012 17.5096 33.3842 16.9062 31.985C16.3028 30.5858 16.0008 29.0908 16 27.5C16 25.9092 16.3021 24.4142 16.9062 23.015C17.5103 21.6158 18.3295 20.3987 19.3637 19.3637C20.3987 18.3287 21.6158 17.5096 23.015 16.9062C24.4142 16.3028 25.9092 16.0008 27.5 16C29.0908 16 30.5858 16.3021 31.985 16.9062C33.3842 17.5103 34.6012 18.3295 35.6362 19.3637C36.6712 20.3987 37.4908 21.6158 38.0949 23.015C38.6991 24.4142 39.0008 25.9092 39 27.5C39 29.0908 38.6979 30.5858 38.0938 31.985C37.4897 33.3842 36.6705 34.6012 35.6362 35.6362C34.6012 36.6712 33.3842 37.4908 31.985 38.0949C30.5858 38.6991 29.0908 39.0008 27.5 39ZM27.5 36.7C30.0683 36.7 32.2437 35.8087 34.0262 34.0262C35.8087 32.2437 36.7 30.0683 36.7 27.5C36.7 24.9317 35.8087 22.7562 34.0262 20.9737C32.2437 19.1912 30.0683 18.3 27.5 18.3C24.9317 18.3 22.7562 19.1912 20.9737 20.9737C19.1912 22.7562 18.3 24.9317 18.3 27.5C18.3 30.0683 19.1912 32.2437 20.9737 34.0262C22.7562 35.8087 24.9317 36.7 27.5 36.7Z" fill="#3A3A3A"/>
</svg>
