<svg width="55" height="55" viewBox="0 0 55 55" fill="none" xmlns="http://www.w3.org/2000/svg">
<circle cx="27.5" cy="27.5" r="25" fill="white" stroke="#3A3A3A" stroke-width="5"/>
<path d="M27 21V19H29V21H27ZM27 37V35H29V37H27ZM23 21V19H25V21H23ZM23 37V35H25V37H23ZM22.3 31.3L19.7 28.7C19.5 28.5 19.4 28.2667 19.4 28C19.4 27.7333 19.5 27.5 19.7 27.3L22.3 24.7C22.4833 24.5167 22.7127 24.421 22.988 24.413C23.2633 24.405 23.5007 24.5007 23.7 24.7C23.8833 24.8833 23.975 25.1167 23.975 25.4C23.975 25.6833 23.8833 25.9167 23.7 26.1L22.825 27H28C28.2833 27 28.521 27.096 28.713 27.288C28.905 27.48 29.0007 27.7173 29 28C29 28.2833 28.904 28.521 28.712 28.713C28.52 28.905 28.2827 29.0007 28 29H22.825L23.725 29.9C23.9083 30.0833 24 30.3127 24 30.588C24 30.8633 23.9 31.1007 23.7 31.3C23.5167 31.4833 23.2833 31.575 23 31.575C22.7167 31.575 22.4833 31.4833 22.3 31.3ZM33 37C32.45 37 31.979 36.804 31.587 36.412C31.195 36.02 30.9993 35.5493 31 35V21C31 20.45 31.196 19.979 31.588 19.587C31.98 19.195 32.4507 18.9993 33 19H35C35.55 19 36.021 19.196 36.413 19.588C36.805 19.98 37.0007 20.4507 37 21V35C37 35.55 36.804 36.021 36.412 36.413C36.02 36.805 35.5493 37.0007 35 37H33ZM21 37C20.45 37 19.979 36.804 19.587 36.412C19.195 36.02 18.9993 35.5493 19 35H21V37ZM19 21C19 20.45 19.196 19.979 19.588 19.587C19.98 19.195 20.4507 18.9993 21 19V21H19Z" fill="#3A3A3A"/>
</svg>
