<svg width="55" height="55" viewBox="0 0 55 55" fill="none" xmlns="http://www.w3.org/2000/svg">
<circle cx="27.5" cy="27.5" r="25" fill="white" stroke="#3A3A3A" stroke-width="5"/>
<path d="M39 32.4C34.6875 30.9333 31.0938 31.6667 27.5 39C26.7812 34.6 25.3438 30.9333 23.1875 27.2667M18.875 22.8667C18.1125 22.8667 17.3812 22.5576 16.8421 22.0075C16.3029 21.4574 16 20.7113 16 19.9333C16 19.1554 16.3029 18.4093 16.8421 17.8592C17.3812 17.309 18.1125 17 18.875 17C19.6375 17 20.3688 17.309 20.9079 17.8592C21.4471 18.4093 21.75 19.1554 21.75 19.9333C21.75 20.7113 21.4471 21.4574 20.9079 22.0075C20.3688 22.5576 19.6375 22.8667 18.875 22.8667Z" stroke="#3A3A3A" stroke-width="3" stroke-linecap="round" stroke-linejoin="round"/>
</svg>
