<svg width="55" height="55" viewBox="0 0 55 55" fill="none" xmlns="http://www.w3.org/2000/svg">
<circle cx="27.5" cy="27.5" r="25" fill="white" stroke="#3A3A3A" stroke-width="5"/>
<path d="M39.1569 28.2473C39.6049 29.0888 39.8809 30.0094 39.9691 30.9565C40.0573 31.9036 39.9561 32.8587 39.6712 33.767C39.3863 34.6754 38.9233 35.5193 38.3087 36.2505C37.694 36.9818 36.9398 37.5859 36.0891 38.0285L33.7396 39.2536L33.1619 39.5543C32.6311 39.8307 32.0432 39.9827 31.4437 39.9986C30.8441 40.0145 30.2489 39.8938 29.7039 39.6459L20.5284 35.7665L21.3924 33.2298L26.8492 34.2729L24.0232 28.9588L19.4737 20.4039L21.69 19.2499L26.2396 27.8074L27.3344 27.2376L25.3287 23.4634L27.5438 22.3101L29.5494 26.0843L30.6442 25.5145L29.0955 22.6015L31.3119 21.4476L32.8606 24.3605L33.9559 23.7858L32.8931 21.7811L35.1088 20.6303L36.1717 22.6349L39.1563 28.2491L39.1569 28.2473ZM17.9651 21.5584C17.5047 21.1023 17.1911 20.5215 17.0639 19.8893C16.9368 19.257 17.0017 18.6017 17.2506 18.0059C17.4995 17.4102 17.9212 16.9008 18.4624 16.542C19.0036 16.1832 19.64 15.9911 20.2915 15.9899C20.8193 15.9905 21.3394 16.1164 21.8079 16.357C22.2765 16.5977 22.6799 16.946 22.9843 17.3728C23.2887 17.7996 23.4852 18.2925 23.5573 18.81C23.6294 19.3275 23.575 19.8545 23.3987 20.347L23.9802 21.4346C24.3691 20.7894 24.5785 20.0537 24.587 19.3024C24.5954 18.5511 24.4027 17.8109 24.0284 17.1572C23.6541 16.5035 23.1116 15.9596 22.456 15.5807C21.8003 15.2018 21.055 15.0014 20.2958 15C19.1832 15.0002 18.1141 15.4274 17.3134 16.1918C16.5127 16.9563 16.0429 17.9983 16.0028 19.0986C15.9627 20.1989 16.3555 21.2717 17.0984 22.0912C17.8414 22.9107 18.8767 23.413 19.9863 23.4925L19.4017 22.3924C18.8583 22.2414 18.3634 21.9542 17.9651 21.5584Z" fill="#3A3A3A"/>
</svg>
