<svg width="55" height="55" viewBox="0 0 55 55" fill="none" xmlns="http://www.w3.org/2000/svg">
<circle cx="27.5" cy="27.5" r="25" fill="white" stroke="#3A3A3A" stroke-width="5"/>
<path d="M27.83 24L31 27.16V27C31 26.2044 30.6839 25.4413 30.1213 24.8787C29.5587 24.3161 28.7956 24 28 24H27.83ZM23.53 24.8L25.08 26.35C25.03 26.56 25 26.77 25 27C25 27.7956 25.3161 28.5587 25.8787 29.1213C26.4413 29.6839 27.2044 30 28 30C28.22 30 28.44 29.97 28.65 29.92L30.2 31.47C29.53 31.8 28.79 32 28 32C26.6739 32 25.4021 31.4732 24.4645 30.5355C23.5268 29.5979 23 28.3261 23 27C23 26.21 23.2 25.47 23.53 24.8ZM18 19.27L20.28 21.55L20.73 22C19.08 23.3 17.78 25 17 27C18.73 31.39 23 34.5 28 34.5C29.55 34.5 31.03 34.2 32.38 33.66L32.81 34.08L35.73 37L37 35.73L19.27 18M28 22C29.3261 22 30.5979 22.5268 31.5355 23.4645C32.4732 24.4021 33 25.6739 33 27C33 27.64 32.87 28.26 32.64 28.82L35.57 31.75C37.07 30.5 38.27 28.86 39 27C37.27 22.61 33 19.5 28 19.5C26.6 19.5 25.26 19.75 24 20.2L26.17 22.35C26.74 22.13 27.35 22 28 22Z" fill="#3A3A3A"/>
</svg>
