<svg width="55" height="55" viewBox="0 0 55 55" fill="none" xmlns="http://www.w3.org/2000/svg">
<rect width="55" height="55" fill="white"/>
<path d="M18.1177 34.9891C21.1404 38.9003 26.2277 39.9432 30.3683 38.152C31.0641 37.846 31.2124 36.9163 30.6763 36.3835L30.6193 36.3268C30.2885 35.9981 29.798 35.93 29.3645 36.1114C25.9882 37.5172 21.8476 36.5309 19.5777 33.1412C17.7755 30.4544 17.8097 27.0534 19.6348 24.3779C21.2431 22.0312 23.7525 20.8975 26.262 20.8975V22.8928C26.262 23.403 26.8779 23.6524 27.2429 23.3009L30.4253 20.138C30.6535 19.9112 30.6535 19.5598 30.4253 19.3331L27.2315 16.1701C27.1529 16.0897 27.0518 16.0345 26.9413 16.0117C26.8308 15.9889 26.7159 15.9996 26.6116 16.0423C26.5072 16.085 26.4181 16.1578 26.3558 16.2513C26.2935 16.3448 26.2608 16.4547 26.262 16.5669V18.6075C23.1138 18.6075 19.9656 20.0246 17.8896 22.8928C15.2889 26.4865 15.3801 31.486 18.1177 34.9891Z" fill="#3A3A3A"/>
<path d="M33.7571 22.3405C33.6577 22.2326 33.5397 22.1469 33.4098 22.0885C33.2799 22.0301 33.1406 22 33 22C32.8594 22 32.7201 22.0301 32.5902 22.0885C32.4603 22.1469 32.3423 22.2326 32.2429 22.3405L27.314 27.6733C27.2145 27.781 27.1355 27.9089 27.0816 28.0498C27.0277 28.1907 27 28.3417 27 28.4941C27 28.6466 27.0277 28.7976 27.0816 28.9385C27.1355 29.0793 27.2145 29.2073 27.314 29.315L32.2429 34.6594C32.6617 35.1135 33.3383 35.1135 33.7571 34.6594L38.686 29.315C38.7855 29.2073 38.8645 29.0793 38.9184 28.9385C38.9723 28.7976 39 28.6466 39 28.4941C39 28.3417 38.9723 28.1907 38.9184 28.0498C38.8645 27.9089 38.7855 27.781 38.686 27.6733L33.7571 22.3405Z" fill="#3A3A3A"/>
<rect x="1.5" y="1.5" width="52" height="52" stroke="black" stroke-width="3"/>
</svg>
