<svg width="55" height="55" viewBox="0 0 55 55" fill="none" xmlns="http://www.w3.org/2000/svg">
<rect width="55" height="55" fill="white"/>
<path d="M27.5 30.5L34.5 26L27.5 21.5V30.5ZM24 34C23.45 34 22.979 33.804 22.587 33.412C22.195 33.02 21.9993 32.5493 22 32V20C22 19.45 22.196 18.979 22.588 18.587C22.98 18.195 23.4507 17.9993 24 18H36C36.55 18 37.021 18.196 37.413 18.588C37.805 18.98 38.0007 19.4507 38 20V32C38 32.55 37.804 33.021 37.412 33.413C37.02 33.805 36.5493 34.0007 36 34H24ZM20 38C19.45 38 18.979 37.804 18.587 37.412C18.195 37.02 17.9993 36.5493 18 36V22H20V36H34V38H20Z" fill="#3A3A3A"/>
<rect x="1.5" y="1.5" width="52" height="52" stroke="black" stroke-width="3"/>
</svg>
