<svg width="55" height="55" viewBox="0 0 55 55" fill="none" xmlns="http://www.w3.org/2000/svg">
<rect width="55" height="55" fill="white"/>
<path d="M14 19.8333C14 18.8167 14.4064 17.8416 15.1297 17.1228C15.8531 16.4039 16.8342 16 17.8571 16H37.1429C38.1658 16 39.1469 16.4039 39.8703 17.1228C40.5936 17.8416 41 18.8167 41 19.8333V29.4167C41.0004 30.15 40.7891 30.8681 40.3912 31.4858C39.9933 32.1034 39.4255 32.5946 38.7551 32.9012C38.6177 32.6329 38.4387 32.3878 38.2248 32.1747L30.5105 24.5081C30.1059 24.1057 29.5903 23.8317 29.029 23.7207C28.4677 23.6096 27.8858 23.6666 27.3571 23.8843C26.8283 24.102 26.3764 24.4707 26.0585 24.9437C25.7407 25.4168 25.5712 25.9729 25.5714 26.5417V33.25H17.8571C16.8342 33.25 15.8531 32.8461 15.1297 32.1272C14.4064 31.4084 14 30.4333 14 29.4167V19.8333ZM29.147 25.8632C29.0121 25.7288 28.8402 25.6372 28.6529 25.6001C28.4656 25.563 28.2714 25.582 28.095 25.6547C27.9186 25.7273 27.7679 25.8504 27.662 26.0083C27.556 26.1663 27.4997 26.3519 27.5 26.5417V38.0417C27.5 38.2428 27.5637 38.4388 27.682 38.602C27.8004 38.7652 27.9674 38.8872 28.1594 38.9508C28.3514 39.0144 28.5586 39.0164 28.7518 38.9564C28.945 38.8964 29.1143 38.7776 29.2357 38.6167L31.8393 35.1667H36.1786C36.3695 35.167 36.5563 35.111 36.7152 35.0057C36.8741 34.9004 36.998 34.7506 37.0711 34.5753C37.1442 34.4 37.1633 34.207 37.126 34.0209C37.0886 33.8348 36.9965 33.6639 36.8613 33.5298L29.147 25.8632Z" fill="#3A3A3A"/>
<rect x="1.5" y="1.5" width="52" height="52" stroke="black" stroke-width="3"/>
</svg>
