<svg width="55" height="55" viewBox="0 0 55 55" fill="none" xmlns="http://www.w3.org/2000/svg">
<rect width="55" height="55" fill="white"/>
<path d="M30 32.5C30 33.1875 29.755 33.7762 29.265 34.2662C28.775 34.7562 28.1867 35.0008 27.5 35H17.5C16.8125 35 16.2238 34.755 15.7338 34.265C15.2438 33.775 14.9992 33.1867 15 32.5V22.5C15 21.8125 15.245 21.2238 15.735 20.7338C16.225 20.2438 16.8133 19.9992 17.5 20H27.5C28.1875 20 28.7762 20.245 29.2662 20.735C29.7562 21.225 30.0008 21.8133 30 22.5V32.5ZM32.5 22.5V20H35V22.5H32.5ZM32.5 35V32.5H35V35H32.5ZM37.5 28.75V26.25H40V28.75H37.5ZM37.5 22.5V20C38.1875 20 38.7762 20.245 39.2662 20.735C39.7562 21.225 40.0008 21.8133 40 22.5H37.5ZM37.5 32.5H40C40 33.1875 39.755 33.7762 39.265 34.2662C38.775 34.7562 38.1867 35.0008 37.5 35V32.5Z" fill="#3A3A3A"/>
<rect x="1.5" y="1.5" width="52" height="52" stroke="black" stroke-width="3"/>
</svg>
