<svg width="55" height="55" viewBox="0 0 55 55" fill="none" xmlns="http://www.w3.org/2000/svg">
<rect width="55" height="55" fill="white"/>
<path d="M23.75 28.6484V18.8734C23.75 18.4159 23.9317 17.9772 24.2552 17.6537C24.5787 17.3302 25.0175 17.1484 25.475 17.1484C25.9325 17.1484 26.3713 17.3302 26.6948 17.6537C27.0183 17.9772 27.2 18.4159 27.2 18.8734V27.4984M27.2 26.9234V24.6234C27.2 24.1659 27.3817 23.7272 27.7052 23.4037C28.0287 23.0802 28.4675 22.8984 28.925 22.8984C29.3825 22.8984 29.8213 23.0802 30.1448 23.4037C30.4683 23.7272 30.65 24.1659 30.65 24.6234V27.4984M30.65 25.7734C30.65 25.3159 30.8317 24.8772 31.1552 24.5537C31.4787 24.2302 31.9175 24.0484 32.375 24.0484C32.8325 24.0484 33.2713 24.2302 33.5948 24.5537C33.9183 24.8772 34.1 25.3159 34.1 25.7734V27.4984" stroke="#3A3A3A" stroke-width="1.7" stroke-linecap="round" stroke-linejoin="round"/>
<path d="M34.1 26.925C34.1 26.4675 34.2817 26.0287 34.6052 25.7052C34.9287 25.3817 35.3675 25.2 35.825 25.2C36.2825 25.2 36.7213 25.3817 37.0448 25.7052C37.3683 26.0287 37.55 26.4675 37.55 26.925V32.1C37.55 33.93 36.823 35.685 35.529 36.979C34.235 38.273 32.48 39 30.65 39H28.35H28.5892C27.4465 39.0002 26.3216 38.7166 25.3156 38.1746C24.3096 37.6327 23.4539 36.8494 22.8254 35.895L22.6 35.55C22.2412 34.9991 20.9819 32.8038 18.8211 28.9628C18.6008 28.5713 18.542 28.1092 18.6571 27.675C18.7722 27.2407 19.0522 26.8685 19.4375 26.6375C19.8479 26.3912 20.3288 26.2892 20.8039 26.3475C21.2789 26.4059 21.7209 26.6213 22.0595 26.9595L23.75 28.65M20.3 17.15L19.15 16M19.15 21.75H18M30.65 17.15L31.8 16M31.8 20.6H32.95" stroke="#3A3A3A" stroke-width="1.7" stroke-linecap="round" stroke-linejoin="round"/>
<rect x="1.5" y="1.5" width="52" height="52" stroke="black" stroke-width="3"/>
</svg>
