<svg width="55" height="55" viewBox="0 0 55 55" fill="none" xmlns="http://www.w3.org/2000/svg">
<rect width="55" height="55" fill="white"/>
<path d="M28 17C15.8528 17 12.2021 27.3981 12.1687 27.5034L12 28L12.1671 28.4966C12.2021 28.6019 15.8528 39 28 39C40.1472 39 43.7979 28.6019 43.8313 28.4966L44 28L43.8329 27.5034C43.7979 27.3981 40.1472 17 28 17ZM28 34.2857C24.4894 34.2857 21.6344 31.4666 21.6344 28C21.6344 24.5334 24.4894 21.7143 28 21.7143C31.5106 21.7143 34.3656 24.5334 34.3656 28C34.3656 31.4666 31.5106 34.2857 28 34.2857Z" fill="#3A3A3A"/>
<path d="M28 25C26.374 25 25 26.374 25 28C25 29.626 26.374 31 28 31C29.626 31 31 29.626 31 28C31 26.374 29.626 25 28 25Z" fill="#3A3A3A"/>
<rect x="1.5" y="1.5" width="52" height="52" stroke="black" stroke-width="3"/>
</svg>
