<svg width="55" height="55" viewBox="0 0 55 55" fill="none" xmlns="http://www.w3.org/2000/svg">
<rect width="55" height="55" fill="white"/>
<path d="M28.6817 24.9457L25.1654 22.299V32.701L28.6817 30.0543L32.0827 27.5L28.6817 24.9457ZM28.6817 24.9457L25.1654 22.299V32.701L28.6817 30.0543L32.0827 27.5L28.6817 24.9457ZM28.6817 24.9457L25.1654 22.299V32.701L28.6817 30.0543L32.0827 27.5L28.6817 24.9457ZM26.3183 18.3347V16C24.001 16.2312 21.8912 17.1558 20.185 18.5543L21.8221 20.207C23.1248 19.1875 24.6784 18.5405 26.3183 18.3347ZM20.1965 21.8367L18.5479 20.1955C17.1123 21.9483 16.2259 24.0876 16 26.3442H18.3288C18.5363 24.6568 19.205 23.1196 20.1965 21.8367ZM18.3288 28.6558H16C16.2306 30.9789 17.1529 33.094 18.5479 34.8045L20.1965 33.1518C19.1778 31.8512 18.532 30.2968 18.3288 28.6558ZM20.185 36.4457C21.9345 37.883 24.0679 38.7714 26.3183 39V36.6653C24.6784 36.4595 23.1248 35.8125 21.8221 34.793L20.185 36.4457ZM39 27.5C39 33.4638 34.4807 38.3874 28.6817 39V36.6653C33.201 36.0643 36.6942 32.1809 36.6942 27.5C36.6942 22.8191 33.201 18.9357 28.6817 18.3347V16C34.4807 16.6126 39 21.5362 39 27.5Z" fill="#3A3A3A"/>
<rect x="1.5" y="1.5" width="52" height="52" stroke="black" stroke-width="3"/>
</svg>
