<svg width="55" height="55" viewBox="0 0 55 55" fill="none" xmlns="http://www.w3.org/2000/svg">
<rect width="55" height="55" fill="white"/>
<path d="M19.4388 30.2382C18.4796 30.8933 18 31.9771 18 33.4903C18 35.7597 20.7898 39.639 23.3058 39.639H29.7423C32.2046 39.639 33.6998 37.4869 33.6998 35.7597V28.7949C33.6998 28.3136 33.509 27.852 33.1692 27.5111C32.8294 27.1703 32.3684 26.9781 31.8871 26.9766C31.6496 26.9758 31.4142 27.0219 31.1945 27.1121C30.9748 27.2024 30.775 27.335 30.6066 27.5024C30.4382 27.6699 30.3044 27.8689 30.2128 28.0881C30.1213 28.3072 30.0739 28.5423 30.0732 28.7798V28.8413" stroke="#3A3A3A" stroke-width="2" stroke-linecap="round"/>
<path d="M20.2188 31.5058V19.3297C20.2188 18.8528 20.4082 18.3953 20.7455 18.058C21.0828 17.7207 21.5403 17.5312 22.0172 17.5312C22.4942 17.5312 22.9517 17.7207 23.289 18.058C23.6262 18.3953 23.8157 18.8528 23.8157 19.3297V28.2655" stroke="#3A3A3A" stroke-width="2" stroke-linecap="round"/>
<path d="M23.8164 28.4574V26.1142C23.8164 25.6985 23.9815 25.2999 24.2755 25.0059C24.5694 24.712 24.9681 24.5469 25.3838 24.5469C25.7995 24.5469 26.1981 24.712 26.4921 25.0059C26.786 25.2999 26.9511 25.6985 26.9511 26.1142V28.6967" stroke="#3A3A3A" stroke-width="2" stroke-linecap="round" stroke-linejoin="round"/>
<path d="M26.9375 28.8245V27.2314C26.9375 26.8157 27.1026 26.4171 27.3966 26.1231C27.6905 25.8292 28.0892 25.6641 28.5049 25.6641C28.9205 25.6641 29.3192 25.8292 29.6131 26.1231C29.9071 26.4171 30.0722 26.8157 30.0722 27.2314V29.0173" stroke="#3A3A3A" stroke-width="2" stroke-linecap="round" stroke-linejoin="round"/>
<path d="M20.2305 19.5156H36.9996" stroke="#3A3A3A" stroke-width="2" stroke-linecap="round"/>
<path d="M34.207 22.0307L35.1388 21.1923L37.0019 19.5154L35.1388 17.8385L34.207 17" stroke="#3A3A3A" stroke-width="2" stroke-linecap="round" stroke-linejoin="round"/>
<rect x="1.5" y="1.5" width="52" height="52" stroke="black" stroke-width="3"/>
</svg>
