<svg width="55" height="55" viewBox="0 0 55 55" fill="none" xmlns="http://www.w3.org/2000/svg">
<rect width="55" height="55" fill="white"/>
<path d="M34.6667 26V21.3333C34.6667 20.9797 34.5262 20.6406 34.2761 20.3905C34.0261 20.1405 33.687 20 33.3333 20H17.3333C16.9797 20 16.6406 20.1405 16.3905 20.3905C16.1405 20.6406 16 20.9797 16 21.3333V34.6667C16 35.0203 16.1405 35.3594 16.3905 35.6095C16.6406 35.8595 16.9797 36 17.3333 36H33.3333C33.687 36 34.0261 35.8595 34.2761 35.6095C34.5262 35.3594 34.6667 35.0203 34.6667 34.6667V30L40 35.3333V20.6667L34.6667 26Z" fill="#3A3A3A"/>
<rect x="1.5" y="1.5" width="52" height="52" stroke="black" stroke-width="3"/>
</svg>
