<svg width="55" height="55" viewBox="0 0 55 55" fill="none" xmlns="http://www.w3.org/2000/svg">
<rect width="55" height="55" fill="white"/>
<path d="M23.1 39C22.5167 39 22.0206 38.7992 21.6118 38.3977C21.203 37.9962 20.9991 37.5095 21 36.9375V21.125H16.1C15.5167 21.125 15.0206 20.9243 14.6118 20.5228C14.203 20.1213 13.9991 19.6345 14 19.0625C14 18.4896 14.2044 18.0024 14.6132 17.6009C15.022 17.1994 15.5176 16.9991 16.1 17H30.1C30.6833 17 31.1794 17.2008 31.5882 17.6023C31.997 18.0038 32.2009 18.4905 32.2 19.0625C32.2 19.6354 31.9956 20.1226 31.5868 20.5241C31.178 20.9256 30.6824 21.1259 30.1 21.125H25.2V36.9375C25.2 37.5104 24.9956 37.9976 24.5868 38.3991C24.178 38.8006 23.6824 39.0009 23.1 39ZM35.7 39C35.1167 39 34.6206 38.7992 34.2118 38.3977C33.803 37.9962 33.5991 37.5095 33.6 36.9375V28H31.5C30.9167 28 30.4206 27.7993 30.0118 27.3978C29.603 26.9963 29.3991 26.5095 29.4 25.9375C29.4 25.3646 29.6044 24.8774 30.0132 24.4759C30.422 24.0744 30.9176 23.8741 31.5 23.875H39.9C40.4833 23.875 40.9794 24.0758 41.3882 24.4773C41.797 24.8788 42.0009 25.3655 42 25.9375C42 26.5104 41.7956 26.9976 41.3868 27.3991C40.978 27.8006 40.4824 28.0009 39.9 28H37.8V36.9375C37.8 37.5104 37.5956 37.9976 37.1868 38.3991C36.778 38.8006 36.2824 39.0009 35.7 39Z" fill="#3A3A3A"/>
<rect x="1.5" y="1.5" width="52" height="52" stroke="black" stroke-width="3"/>
</svg>
