<svg width="60" height="35" viewBox="0 0 60 35" fill="none" xmlns="http://www.w3.org/2000/svg">
<path d="M58.3325 7.23732L32.1794 33.6382C31.8681 33.9516 31.5308 34.1741 31.1675 34.3057C30.8043 34.4373 30.4151 34.502 30 34.5C29.5849 34.5 29.1957 34.4341 28.8325 34.3025C28.4692 34.1709 28.1319 33.9495 27.8206 33.6382L1.58971 7.23732C0.863236 6.50613 0.5 5.59216 0.5 4.49538C0.5 3.39861 0.889182 2.45852 1.66755 1.67511C2.44591 0.891705 3.354 0.5 4.39182 0.5C5.42964 0.5 6.33773 0.891705 7.11609 1.67511L30 24.7073L52.8839 1.67511C53.6104 0.943932 54.506 0.578339 55.5708 0.578339C56.6356 0.578339 57.5562 0.970043 58.3325 1.75345C59.1108 2.53686 59.5 3.45084 59.5 4.49538C59.5 5.53993 59.1108 6.45391 58.3325 7.23732Z" fill="#3A3A3A"/>
</svg>
