<svg width="34" height="59" viewBox="0 0 34 59" fill="none" xmlns="http://www.w3.org/2000/svg">
<path d="M6.73732 1.16755L33.1382 27.3206C33.4516 27.6319 33.6741 27.9692 33.8057 28.3325C33.9373 28.6957 34.002 29.0849 34 29.5C34 29.9151 33.9341 30.3043 33.8025 30.6675C33.6709 31.0308 33.4495 31.3681 33.1382 31.6794L6.73732 57.9103C6.00613 58.6368 5.09216 59 3.99538 59C2.89861 59 1.95852 58.6108 1.17511 57.8325C0.391705 57.0541 0 56.146 0 55.1082C0 54.0704 0.391705 53.1623 1.17511 52.3839L24.2073 29.5L1.17511 6.6161C0.443932 5.88962 0.0783386 4.99399 0.0783386 3.92919C0.0783386 2.86438 0.470043 1.94384 1.25345 1.16755C2.03686 0.389183 2.95084 0 3.99538 0C5.03993 0 5.95391 0.389183 6.73732 1.16755Z" fill="#3A3A3A"/>
</svg>
