<svg width="34" height="59" viewBox="0 0 34 59" fill="none" xmlns="http://www.w3.org/2000/svg">
<path d="M27.2627 57.8325L0.861799 31.6794C0.548435 31.3681 0.325947 31.0308 0.194334 30.6675C0.0627216 30.3043 -0.00204013 29.9151 4.89631e-05 29.5C4.89631e-05 29.0849 0.0658553 28.6957 0.197468 28.3325C0.329081 27.9692 0.550524 27.6319 0.861799 27.3206L27.2627 1.08971C27.9939 0.363236 28.9078 0 30.0046 0C31.1014 0 32.0415 0.389182 32.8249 1.16755C33.6083 1.94591 34 2.854 34 3.89182C34 4.92964 33.6083 5.83773 32.8249 6.61609L9.79266 29.5L32.8249 52.3839C33.5561 53.1104 33.9217 54.006 33.9217 55.0708C33.9217 56.1356 33.53 57.0562 32.7465 57.8325C31.9631 58.6108 31.0492 59 30.0046 59C28.9601 59 28.0461 58.6108 27.2627 57.8325Z" fill="#3A3A3A"/>
</svg>
