<svg width="60" height="35" viewBox="0 0 60 35" fill="none" xmlns="http://www.w3.org/2000/svg">
<path d="M1.66755 27.7627L27.8206 1.3618C28.1319 1.04844 28.4692 0.825947 28.8325 0.694334C29.1957 0.562722 29.5849 0.49796 30 0.500049C30.4151 0.500049 30.8043 0.565855 31.1675 0.697468C31.5308 0.829081 31.8681 1.05052 32.1794 1.3618L58.4103 27.7627C59.1368 28.4939 59.5 29.4078 59.5 30.5046C59.5 31.6014 59.1108 32.5415 58.3325 33.3249C57.5541 34.1083 56.646 34.5 55.6082 34.5C54.5704 34.5 53.6623 34.1083 52.8839 33.3249L30 10.2927L7.1161 33.3249C6.38962 34.0561 5.49399 34.4217 4.42919 34.4217C3.36438 34.4217 2.44384 34.03 1.66755 33.2465C0.889183 32.4631 0.5 31.5492 0.5 30.5046C0.5 29.4601 0.889183 28.5461 1.66755 27.7627Z" fill="#3A3A3A"/>
</svg>
