<svg width="31" height="31" viewBox="0 0 31 31" fill="black" xmlns="http://www.w3.org/2000/svg">
  <path d="M9.64875 27.745C5.425 25.7558 2.4025 21.6483 1.9375 16.7917H0C0.65875 24.7483 7.31083 31 15.4354 31L16.2879 30.9612L11.3667 26.04L9.64875 27.745ZM10.7983 19.3233C10.5529 19.3233 10.3204 19.2846 10.1267 19.22C9.92 19.1425 9.75208 19.0521 9.61 18.91C9.46792 18.7808 9.35167 18.6258 9.27417 18.4321C9.19667 18.2512 9.15792 18.0446 9.15792 17.825H7.47875C7.47875 18.29 7.56917 18.7033 7.75 19.0521C7.93083 19.4008 8.17625 19.6979 8.47333 19.9433C8.78333 20.1758 9.13208 20.3567 9.5325 20.4729C9.92 20.6021 10.3333 20.6667 10.7725 20.6667C11.2504 20.6667 11.7025 20.6021 12.1029 20.4729C12.5162 20.3438 12.8779 20.15 13.175 19.9046C13.4721 19.6592 13.7175 19.3492 13.8854 18.9746C14.0533 18.6 14.1437 18.1867 14.1437 17.7217C14.1437 17.4762 14.1179 17.2308 14.0533 16.9983C13.9887 16.7658 13.8983 16.5462 13.7562 16.3396C13.6271 16.1329 13.4462 15.9521 13.2396 15.7842C13.02 15.6163 12.7617 15.4871 12.4517 15.3837C12.71 15.2675 12.9296 15.1254 13.1233 14.9575C13.3171 14.7896 13.4721 14.6087 13.6012 14.415C13.7304 14.2212 13.8208 14.0275 13.8854 13.8208C13.95 13.6142 13.9758 13.4075 13.9758 13.2008C13.9758 12.7358 13.8983 12.3225 13.7433 11.9608C13.5883 11.5992 13.3687 11.3021 13.0846 11.0696C12.8263 10.8242 12.4775 10.6433 12.09 10.5142C11.6896 10.3979 11.2504 10.3333 10.7725 10.3333C10.3075 10.3333 9.88125 10.3979 9.48083 10.54C9.09333 10.6821 8.74458 10.8758 8.46042 11.1212C8.18917 11.3667 7.96958 11.6508 7.80167 11.9867C7.64667 12.3225 7.56917 12.6842 7.56917 13.0846H9.24833C9.24833 12.865 9.28708 12.6713 9.36458 12.5033C9.44208 12.3354 9.54542 12.1804 9.6875 12.0642C9.82958 11.9479 9.98458 11.8446 10.1783 11.78C10.3721 11.7154 10.5658 11.6767 10.7983 11.6767C11.315 11.6767 11.7025 11.8058 11.9479 12.0771C12.1933 12.3354 12.3225 12.71 12.3225 13.1879C12.3225 13.4204 12.2837 13.6271 12.2192 13.8208C12.1546 14.0146 12.0383 14.1696 11.8962 14.2987C11.7542 14.4279 11.5733 14.5312 11.3667 14.6088C11.16 14.6862 10.9017 14.725 10.6175 14.725H9.62292V16.0554H10.6175C10.9017 16.0554 11.16 16.0812 11.3925 16.1458C11.625 16.2104 11.8187 16.3137 11.9737 16.4429C12.1287 16.585 12.2579 16.7529 12.3483 16.9596C12.4387 17.1663 12.4775 17.4117 12.4775 17.6958C12.4775 18.2254 12.3225 18.6258 12.0254 18.8971C11.7283 19.1942 11.315 19.3233 10.7983 19.3233ZM21.8421 11.6767C21.4287 11.2504 20.9379 10.9146 20.3696 10.6821C19.8142 10.4496 19.1812 10.3333 18.4837 10.3333H15.4354V20.6667H18.4062C19.1167 20.6667 19.7754 20.5504 20.3567 20.3179C20.9379 20.0854 21.4417 19.7625 21.855 19.3363C22.2683 18.91 22.5912 18.3933 22.8108 17.7992C23.0304 17.1921 23.1467 16.5204 23.1467 15.7712V15.2546C23.1467 14.5054 23.0304 13.8337 22.8108 13.2267C22.5783 12.6196 22.2554 12.1029 21.8421 11.6767ZM21.3383 15.7583C21.3383 16.3008 21.2738 16.7787 21.1575 17.2179C21.0283 17.6442 20.8475 18.0187 20.6021 18.3158C20.3567 18.6129 20.0467 18.8454 19.685 19.0004C19.3104 19.1554 18.8842 19.2329 18.4062 19.2329H17.2308V11.78H18.4837C19.4137 11.78 20.1242 12.0771 20.6021 12.6713C21.0929 13.2654 21.3383 14.1179 21.3383 15.2417V15.7583ZM15.4354 0L14.5829 0.03875L19.5042 4.96L21.2221 3.24208C25.4458 5.24417 28.4683 9.33875 28.9204 14.1954H30.8579C30.2121 6.25167 23.56 0 15.4354 0Z" />
</svg>
