<svg width="35" height="31" viewBox="0 0 35 31" fill="black" xmlns="http://www.w3.org/2000/svg">
  <path d="M34.1123 25.9667L32.607 25.214L33.2325 27.0891L28.6064 24.776V12.861C28.6064 12.6397 28.4814 12.4372 28.2833 12.338L18.084 7.2382V2.26682L19.4816 3.66517V1.98214L17.4994 0L15.5173 1.98214V3.66517L16.9148 2.26682V7.23847L6.71552 12.338C6.51744 12.4372 6.39243 12.6397 6.39243 12.861V24.776L1.76605 27.0888L2.39162 25.2137L0.886311 25.9664L0 28.6258L2.6594 29.5124L4.16471 28.7597L2.2888 28.1352L6.97704 25.791L17.2385 30.9216C17.4021 31.0054 17.5966 31.0036 17.7592 30.9172L17.7615 30.9216L28.023 25.791L32.7109 28.1349L30.8353 28.7594L32.3406 29.5121L35 28.6258L34.1123 25.9667ZM17.4991 17.4683L8.28394 12.8607L17.4991 8.25313L26.7143 12.8607L17.4991 17.4683ZM7.56105 13.8065L16.9145 18.4833V19.5144L16.1919 19.8759L16.7149 20.9216L16.9146 20.8219V29.4525L7.56107 24.7758L7.56105 13.8065ZM18.0837 29.4522V18.4833L27.4372 13.8065V24.1909L27.2373 24.0909L26.7146 25.1367L18.0837 29.4522Z"/>
</svg>
