<svg width="36" height="30" viewBox="0 0 36 30" fill="none" xmlns="http://www.w3.org/2000/svg">
  <path d="M24.4 9.31262C26.5328 12.2019 26.5328 17.7985 24.4 20.6878M29.2 3.62504C35.5808 9.81313 35.6192 20.2279 29.2 26.3753M2 19.8086V10.1901C2 9.25737 2.7168 8.50011 3.6 8.50011H9.3376C9.54933 8.49934 9.75872 8.45504 9.95313 8.36985C10.1475 8.28467 10.323 8.16038 10.4688 8.00448L15.2688 2.4989C16.2768 1.43289 18 2.18852 18 3.69492V26.3055C18 27.8232 16.256 28.5724 15.2544 27.4852L10.4704 22.0105C10.3241 21.8502 10.147 21.7221 9.94987 21.6344C9.75278 21.5466 9.54001 21.5009 9.3248 21.5003H3.6C2.7168 21.5003 2 20.743 2 19.8086Z" stroke="black" stroke-width="2.4" stroke-linecap="round" stroke-linejoin="round"/>
</svg>
