<svg width="35" height="35" viewBox="0 0 35 35" fill="none" xmlns="http://www.w3.org/2000/svg">
<path d="M18 27.9998C20.4616 28.0103 22.9124 27.6737 25.28 26.9998L26 26.7898V20.43L22.33 18.2301C21.9607 18.803 21.5131 19.3213 21 19.7701C20.1897 20.5419 19.1189 20.9809 18 21C16.8831 20.9807 15.8134 20.5457 15 19.78C14.4926 19.3248 14.0487 18.8035 13.68 18.2301L10 20.43V26.7498L10.72 26.9598C13.0856 27.6472 15.5365 27.9973 18 27.9998Z" fill="black"/>
<path d="M18 19.9996C21.05 19.9996 23 15.3997 23 12.9998C23 11.6738 22.4732 10.4021 21.5355 9.46441C20.5979 8.52677 19.3261 8 18 8C16.6739 8 15.4021 8.52677 14.4645 9.46441C13.5268 10.4021 13 11.6738 13 12.9998C13 15.3997 14.95 19.9996 18 19.9996Z" fill="black"/>
<circle cx="17.5" cy="17.5" r="16.4" stroke="black" stroke-width="1.8"/>
</svg>
