<svg width="22" height="25" viewBox="0 0 22 25" fill="none" xmlns="http://www.w3.org/2000/svg">
  <path d="M7.66667 16.6071V14.1429M7.66667 14.1429V5.92857C7.66667 5.49286 7.84226 5.07499 8.15482 4.7669C8.46738 4.4588 8.89131 4.28571 9.33333 4.28571C9.77536 4.28571 10.1993 4.4588 10.5118 4.7669C10.8244 5.07499 11 5.49286 11 5.92857V12.5H16.5883C18.105 12.5 19.3333 13.7108 19.3333 15.2058V16.6071C19.3333 18.5679 18.5432 20.4483 17.1366 21.8347C15.7301 23.2211 13.8225 24 11.8333 24H11C9.23189 24 7.5362 23.3077 6.28595 22.0753C5.03571 20.8429 4.33333 19.1714 4.33333 17.4286C4.33333 16.5571 4.68452 15.7214 5.30964 15.1052C5.93477 14.489 6.78261 14.1429 7.66667 14.1429ZM13.5 9.21429H16.8333C17.9384 9.21429 18.9982 8.78157 19.7796 8.01133C20.561 7.24109 21 6.19643 21 5.10714C21 4.01786 20.561 2.97319 19.7796 2.20295C18.9982 1.43272 17.9384 1 16.8333 1H5.16667C4.0616 1 3.00179 1.43272 2.22039 2.20295C1.43899 2.97319 1 4.01786 1 5.10714C1 6.19643 1.43899 7.24109 2.22039 8.01133C3.00179 8.78157 4.0616 9.21429 5.16667 9.21429" stroke="black" stroke-width="1.4"/>
</svg>
