<svg width="115" height="127" viewBox="0 0 115 127" fill="none" xmlns="http://www.w3.org/2000/svg">
  <path d="M33.9827 119.434H43.0175L42.2527 123.151H37.1755C36.1575 123.151 35.2706 123.935 35.2396 124.952C35.2078 126.004 36.0522 126.867 37.0976 126.867H43.7698H43.7787H100.08C100.619 126.867 101.149 126.659 101.51 126.258C102.08 125.625 102.142 124.715 101.709 124.022L97.0552 116.589C96.7153 116.046 96.1204 115.717 95.4796 115.717H83.9202L82.3818 112H89.796L89.9518 112.249C90.3041 112.812 90.9095 113.122 91.5291 113.122C91.9265 113.122 92.3302 112.994 92.6763 112.724C93.434 112.134 93.5809 111.041 93.071 110.227L83.5078 94.9515L85.9304 84.9262C86.1712 83.9286 85.5587 82.924 84.5602 82.6832C83.5626 82.4416 82.558 83.055 82.3172 84.0535L80.0548 93.4175H70.4304C71.5226 85.4158 72.8645 74.3246 72.8645 68.1448C72.8645 65.6656 72.5697 61.8902 72.1944 58.0946L78.534 69.0741C79.7219 71.1312 81.8453 72.2897 84.0291 72.2897C85.0107 72.2897 86.0048 72.0552 86.9307 71.5639C88.4452 70.7593 89.5402 69.4103 90.0129 67.7647C90.4856 66.1184 90.274 64.395 89.4181 62.9123L76.8719 41.1818C75.3017 38.4626 72.9771 36.3029 70.151 34.9363L65.1046 32.4967C66.0154 31.8452 66.8528 31.0672 67.5972 30.1652C70.3119 26.8725 71.7476 22.0174 71.7476 16.123C71.7476 6.9317 65.7126 0 57.7109 0C49.7092 0 43.6741 6.9317 43.6741 16.123C43.6741 24.6851 46.58 29.8208 50.3314 32.4897L45.2701 34.9363C44.438 35.339 43.6511 35.8117 42.9121 36.3455L41.8994 30.0963C41.7366 29.0916 40.8204 28.341 39.8113 28.4738C38.7677 28.611 38.0499 29.582 38.2172 30.6141L39.66 39.517C39.2572 40.0454 38.8846 40.6004 38.5482 41.1829L27.405 60.4837L15.9519 13.0926C15.7111 12.095 14.7056 11.4816 13.7089 11.7224C12.7114 11.9631 12.0979 12.9678 12.3387 13.9654L28.6707 81.5466C28.876 82.3972 29.6373 82.969 30.4755 82.969C30.6322 82.969 30.7915 82.9486 30.95 82.907C31.9404 82.6468 32.5069 81.5979 32.2662 80.603L30.2303 72.1789C30.6154 72.2524 31.0031 72.2904 31.3899 72.2904C33.5736 72.2904 35.6971 71.1317 36.8849 69.0747L43.2245 58.0953C42.8492 61.8908 42.5545 65.666 42.5545 68.1454C42.5545 74.3255 43.8964 85.4167 44.9886 93.4181H33.9011C33.2611 93.4181 32.6654 93.7474 32.3255 94.29L27.7006 101.678C27.4147 102.135 27.3093 102.695 27.4572 103.214C27.6917 104.034 28.43 104.569 29.2469 104.569H36.1131L34.5747 108.286H27.4316C27.3564 107.763 27.0616 107.275 26.5783 106.973C25.7082 106.428 24.562 106.693 24.0166 107.562L20.5655 113.074L15.6653 96.1999C15.3811 95.2227 14.3809 94.5889 13.3957 94.8439C12.376 95.1068 11.7829 96.1583 12.0741 97.162L17.9215 117.297L13.7374 123.98C13.4515 124.437 13.3461 124.997 13.494 125.516C13.7285 126.336 14.4667 126.871 15.2837 126.871H29.6676C30.42 126.871 31.098 126.418 31.3857 125.722L33.9827 119.434ZM79.8987 115.717H71.6375L70.8727 112.001H78.3603L79.8987 115.717ZM73.1661 123.151L72.4014 119.434H81.4361L82.9745 123.151H73.1661ZM48.3421 112H55.8509V115.716H47.5773L48.3421 112ZM59.5686 112H67.0774L67.8422 115.716H59.5686V112ZM71.6253 105.337L71.0384 104.566H75.2844L76.8229 108.283H72.4538C72.5644 107.25 72.2821 106.199 71.6262 105.337L71.6253 105.337ZM68.6078 119.433L69.3726 123.15H59.5695V119.433H68.6078ZM80.8452 108.282L79.3067 104.565H85.1435L87.4707 108.282H80.8452ZM80.4902 97.1308L82.8174 100.848H77.7694L76.231 97.1308H80.4902ZM72.2078 97.1308L73.7462 100.848H69.3701C69.5152 99.8783 69.702 98.6107 69.9135 97.1308H72.2078ZM47.3905 16.119C47.3905 9.04662 51.8269 3.71268 57.7106 3.71268C63.5933 3.71268 68.0306 9.04662 68.0306 16.119C68.0306 23.3693 65.3193 31.1163 57.7106 31.1163C50.1018 31.1163 47.3905 23.3693 47.3905 16.119ZM33.6672 67.2128C32.9635 68.4317 31.4233 68.9097 30.2328 68.2777C29.6167 67.951 29.1724 67.4031 28.9812 66.7357C28.7891 66.0683 28.875 65.369 29.222 64.7671L41.7681 43.0366C42.964 40.9654 44.7352 39.3199 46.8888 38.278L54.7385 34.4825C55.7343 34.7188 56.7354 34.833 57.7117 34.833C58.7376 34.833 59.7361 34.7144 60.6974 34.4896L68.5337 38.279C70.6873 39.32 72.4575 40.9653 73.6544 43.0376L86.2006 64.7681C86.5475 65.3691 86.6334 66.0684 86.4413 66.7367C86.2501 67.4041 85.8049 67.952 85.1897 68.2786C84.0001 68.9106 82.459 68.4326 81.7554 67.2138L71.167 48.8732C70.8882 46.5966 70.6793 45.0281 70.6528 44.8255C70.5173 43.8084 69.5817 43.0932 68.5647 43.2295C67.5476 43.365 66.8324 44.3006 66.9687 45.3176C66.9909 45.4814 69.1515 61.7346 69.1515 68.143C69.1515 78.0532 65.4242 102.092 65.387 102.332C65.3091 102.833 65.4384 103.342 65.7446 103.744L68.6709 107.589C68.8055 107.765 68.7692 107.933 68.7143 108.043C68.6594 108.152 68.5488 108.283 68.3266 108.283H59.5724V72.4761C59.5724 71.4493 58.7403 70.6172 57.7136 70.6172C56.6868 70.6172 55.8547 71.4493 55.8547 72.4761V108.283H47.0996C46.8774 108.283 46.7668 108.152 46.7119 108.043C46.6579 107.933 46.6207 107.765 46.7553 107.589L49.6816 103.744C49.9879 103.342 50.1171 102.833 50.0392 102.332C50.0011 102.091 46.2747 78.0522 46.2747 68.143C46.2747 61.7364 48.4354 45.4808 48.4575 45.3176C48.5929 44.3006 47.8786 43.3658 46.8615 43.2295C45.8427 43.0932 44.9097 43.8084 44.7734 44.8255C44.746 45.0273 44.538 46.5958 44.2592 48.8732L33.6672 67.2128ZM46.0513 100.849H41.6743L43.2127 97.1326H45.5079C45.7195 98.6126 45.9063 99.8811 46.0514 100.849H46.0513ZM32.6031 100.849L34.9302 97.1326H39.1896L37.6512 100.849H32.6031ZM40.1357 104.566H44.3817L43.7949 105.337C43.139 106.199 42.8566 107.25 42.9673 108.283H38.5982L40.1357 104.566ZM25.6217 112H33.0359L31.4974 115.716H23.2948L25.6217 112ZM28.4207 123.151H18.6406L20.9678 119.434H29.9593L28.4207 123.151ZM35.5205 115.717L37.0589 112.001H44.5465L43.7817 115.717H35.5205ZM46.8125 119.434H55.8509V123.151H46.0477L46.8125 119.434ZM86.9977 123.151L85.4593 119.434H94.4508L96.778 123.151H86.9977Z" fill="black"/>
  <path d="M36.8299 25.1398C36.9839 26.0462 37.7699 26.6871 38.6595 26.6871C38.7631 26.6871 38.8675 26.6782 38.9737 26.6605C39.9854 26.4879 40.6662 25.5284 40.4935 24.5167L37.2627 5.53192C37.0901 4.52019 36.1314 3.83949 35.1188 4.01211C34.1071 4.18472 33.4264 5.14423 33.599 6.15595L36.8299 25.1398Z" fill="black"/>
  <path d="M75.2204 36.515C75.3257 36.5328 75.4311 36.5416 75.5346 36.5416C76.4242 36.5416 77.2102 35.9008 77.3642 34.9944L82.2724 6.15497C82.445 5.14324 81.7643 4.18285 80.7526 4.01113C79.7417 3.83852 78.7805 4.51921 78.6087 5.53093L73.7006 34.3703C73.528 35.382 74.2087 36.3424 75.2204 36.5142V36.515Z" fill="black"/>
  <path d="M92.4655 54.9282C92.6125 54.9636 92.7594 54.9805 92.9037 54.9805C93.7419 54.9805 94.5032 54.4086 94.7085 53.558L103.308 17.975C103.549 16.9774 102.936 15.9728 101.938 15.732C100.939 15.4913 99.9353 16.1038 99.6946 17.1023L91.0953 52.6853C90.8546 53.6828 91.4671 54.6875 92.4655 54.9282V54.9282Z" fill="black"/>
  <path d="M4.51502 61.0312C4.22823 60.0451 3.19791 59.4786 2.21186 59.7645C1.22578 60.0504 0.659284 61.0817 0.945208 62.0677L5.42509 77.4933C5.66143 78.3058 6.40319 78.8343 7.20868 78.8343C7.3804 78.8343 7.55477 78.8104 7.72739 78.7599C8.71347 78.474 9.27997 77.4428 8.99404 76.4568L4.51502 61.0312Z" fill="black"/>
  <path d="M113.659 59.7639C112.673 59.4771 111.643 60.0445 111.356 61.0305L99.3456 102.39C99.0597 103.376 99.6262 104.406 100.612 104.693C100.785 104.743 100.959 104.767 101.131 104.767C101.936 104.767 102.679 104.239 102.915 103.426L114.925 62.067C115.211 61.0818 114.645 60.0506 113.659 59.7639L113.659 59.7639Z" fill="black"/>
</svg>
