<svg width="36" height="31" viewBox="0 0 36 31" fill="none" xmlns="http://www.w3.org/2000/svg">
<path fill-rule="evenodd" clip-rule="evenodd" d="M17.925 15.8252C17.367 15.8252 16.832 16.0468 16.4374 16.4414C16.0429 16.8359 15.8213 17.371 15.8213 17.9289C15.8213 18.4868 16.0429 19.0219 16.4374 19.4164C16.832 19.8109 17.367 20.0326 17.925 20.0326C18.4829 20.0326 19.018 19.8109 19.4125 19.4164C19.807 19.0219 20.0287 18.4868 20.0287 17.9289C20.0287 17.371 19.807 16.8359 19.4125 16.4414C19.018 16.0468 18.4829 15.8252 17.925 15.8252ZM13.2969 17.9289C13.2969 16.7014 13.7845 15.5243 14.6524 14.6563C15.5204 13.7884 16.6975 13.3008 17.925 13.3008C19.1524 13.3008 20.3296 13.7884 21.1975 14.6563C22.0655 15.5243 22.5531 16.7014 22.5531 17.9289C22.5531 19.1563 22.0655 20.3335 21.1975 21.2014C20.3296 22.0694 19.1524 22.557 17.925 22.557C16.6975 22.557 15.5204 22.0694 14.6524 21.2014C13.7845 20.3335 13.2969 19.1563 13.2969 17.9289Z" fill="black"/>
<path fill-rule="evenodd" clip-rule="evenodd" d="M17.9243 9.09241C16.177 9.09262 14.469 9.61092 13.0162 10.5818C11.5634 11.5527 10.4311 12.9325 9.76242 14.5468C9.09377 16.1612 8.9188 17.9375 9.25964 19.6513C9.60047 21.3651 10.4418 22.9393 11.6772 24.175C11.7977 24.2915 11.8938 24.4308 11.9599 24.5848C12.026 24.7388 12.0607 24.9045 12.0621 25.0721C12.0635 25.2397 12.0315 25.4059 11.9679 25.5609C11.9044 25.716 11.8106 25.8569 11.692 25.9754C11.5735 26.0938 11.4325 26.1875 11.2773 26.2509C11.1222 26.3143 10.956 26.3461 10.7884 26.3446C10.6208 26.3431 10.4552 26.3082 10.3012 26.2419C10.1473 26.1757 10.008 26.0795 9.89164 25.9589C8.30295 24.3702 7.22104 22.346 6.78273 20.1424C6.34441 17.9388 6.56938 15.6548 7.42919 13.579C8.289 11.5033 9.74502 9.72912 11.6131 8.48088C13.4813 7.23265 15.6776 6.56641 17.9243 6.56641C20.1711 6.56641 22.3674 7.23265 24.2355 8.48088C26.1037 9.72912 27.5597 11.5033 28.4195 13.579C29.2793 15.6548 29.5043 17.9388 29.066 20.1424C28.6276 22.346 27.5457 24.3702 25.957 25.9589C25.7178 26.1818 25.4013 26.3032 25.0743 26.2975C24.7473 26.2917 24.4353 26.1592 24.204 25.928C23.9728 25.6967 23.8403 25.3847 23.8346 25.0577C23.8288 24.7307 23.9502 24.4142 24.1731 24.175C25.4092 22.9393 26.2511 21.3648 26.5922 19.6505C26.9333 17.9363 26.7584 16.1594 26.0894 14.5447C25.4205 12.9299 24.2877 11.5499 22.8343 10.579C21.3809 9.60821 19.6722 9.09195 17.9243 9.09241Z" fill="black"/>
<path fill-rule="evenodd" clip-rule="evenodd" d="M17.9234 2.52673C14.8778 2.52675 11.9006 3.42989 9.36823 5.12195C6.8359 6.81401 4.86219 9.21899 3.69669 12.0328C2.53119 14.8466 2.22623 17.9428 2.8204 20.9298C3.41456 23.9169 4.88116 26.6608 7.03472 28.8143C7.15873 28.9299 7.2582 29.0692 7.32719 29.2241C7.39617 29.3789 7.43327 29.546 7.43626 29.7155C7.43925 29.885 7.40807 30.0533 7.34459 30.2105C7.28111 30.3677 7.18662 30.5104 7.06676 30.6303C6.9469 30.7502 6.80413 30.8447 6.64697 30.9081C6.4898 30.9716 6.32146 31.0028 6.15198 30.9998C5.9825 30.9968 5.81536 30.9597 5.66053 30.8907C5.5057 30.8217 5.36635 30.7223 5.2508 30.5983C2.74384 28.0918 1.03648 24.8981 0.34464 21.4213C-0.347202 17.9444 0.00754913 14.3404 1.36403 11.0651C2.72051 7.78989 5.01779 4.99045 7.96535 3.02086C10.9129 1.05127 14.3783 0 17.9234 0C21.4684 0 24.9339 1.05127 27.8814 3.02086C30.829 4.99045 33.1262 7.78989 34.4827 11.0651C35.8392 14.3404 36.194 17.9444 35.5021 21.4213C34.8103 24.8981 33.1029 28.0918 30.596 30.5983C30.3567 30.8212 30.0402 30.9426 29.7132 30.9368C29.3862 30.9311 29.0742 30.7986 28.843 30.5673C28.6117 30.3361 28.4792 30.0241 28.4735 29.6971C28.4677 29.3701 28.5891 29.0536 28.812 28.8143C30.9656 26.6608 32.4322 23.9169 33.0264 20.9298C33.6205 17.9428 33.3156 14.8466 32.1501 12.0328C30.9846 9.21899 29.0109 6.81401 26.4785 5.12195C23.9462 3.42989 20.969 2.52675 17.9234 2.52673Z" fill="black"/>
</svg>
