<svg width="28" height="22" viewBox="0 0 28 22" fill="black" xmlns="http://www.w3.org/2000/svg">
  <path d="M9.33333 6.41667C9.33333 7.18056 9.06111 7.82986 8.51667 8.36458C7.97222 8.89931 7.31111 9.16667 6.53333 9.16667C5.75556 9.16667 5.09444 8.89931 4.55 8.36458C4.00556 7.82986 3.73333 7.18056 3.73333 6.41667C3.73333 5.65278 4.00556 5.00347 4.55 4.46875C5.09444 3.93403 5.75556 3.66667 6.53333 3.66667C7.31111 3.66667 7.97222 3.93403 8.51667 4.46875C9.06111 5.00347 9.33333 5.65278 9.33333 6.41667ZM24.2667 11.9167V18.3333H3.73333V15.5833L8.4 11L10.7333 13.2917L18.2 5.95833L24.2667 11.9167ZM25.6667 1.83333H2.33333C2.20694 1.83333 2.09757 1.87869 2.00521 1.9694C1.91285 2.06011 1.86667 2.16753 1.86667 2.29167V19.7083C1.86667 19.8325 1.91285 19.9399 2.00521 20.0306C2.09757 20.1213 2.20694 20.1667 2.33333 20.1667H25.6667C25.7931 20.1667 25.9024 20.1213 25.9948 20.0306C26.0872 19.9399 26.1333 19.8325 26.1333 19.7083V2.29167C26.1333 2.16753 26.0872 2.06011 25.9948 1.9694C25.9024 1.87869 25.7931 1.83333 25.6667 1.83333ZM28 2.29167V19.7083C28 20.3385 27.7715 20.878 27.3146 21.3268C26.8576 21.7756 26.3083 22 25.6667 22H2.33333C1.69167 22 1.14236 21.7756 0.685417 21.3268C0.228472 20.878 0 20.3385 0 19.7083V2.29167C0 1.66146 0.228472 1.12196 0.685417 0.673177C1.14236 0.224392 1.69167 0 2.33333 0H25.6667C26.3083 0 26.8576 0.224392 27.3146 0.673177C27.7715 1.12196 28 1.66146 28 2.29167Z"/>
</svg>
