<svg width="106" height="106" viewBox="0 0 106 106" fill="black" xmlns="http://www.w3.org/2000/svg">
  <path d="M3.326 0.00117814C2.44317 -0.00251849 1.59585 0.346444 0.97114 0.971184C0.347096 1.59519 -0.00262194 2.44319 0.00106906 3.32589V26.2843C0.0269477 27.4502 0.663556 28.5163 1.67799 29.0923C2.69243 29.6675 3.93462 29.6675 4.94898 29.0923C5.96268 28.5163 6.60003 27.4502 6.62591 26.2843V6.63053H26.3131C27.193 6.63201 28.0374 6.28305 28.6606 5.66126C29.2832 5.03947 29.6329 4.19516 29.6329 3.31527C29.6329 2.43537 29.2832 1.59114 28.6606 0.969273C28.0373 0.347484 27.1929 -0.00147164 26.3131 4.66525e-06L3.326 0.00117814ZM79.7127 0.00117814H79.7134C78.8328 -0.000300532 77.9884 0.348658 77.3659 0.970446C76.7434 1.59223 76.3937 2.43655 76.3937 3.31644C76.3937 4.19634 76.7434 5.04057 77.3659 5.66244C77.9885 6.28422 78.8329 6.63318 79.7134 6.6317H99.3742V26.2854C99.3542 27.1763 99.6943 28.0384 100.318 28.6757C100.941 29.3131 101.795 29.6716 102.687 29.6716C103.578 29.6716 104.432 29.313 105.055 28.6757C105.679 28.0384 106.019 27.1764 105.999 26.2854V3.32706C106.002 2.44874 105.657 1.60514 105.038 0.981064C104.419 0.3578 103.578 0.00515279 102.699 0.00218126L79.7127 0.00117814ZM19.5134 16.1867C18.635 16.1904 17.7936 16.5424 17.1748 17.1664C16.556 17.7896 16.2107 18.6332 16.2136 19.5124V46.6044C16.2173 47.4783 16.5663 48.3152 17.1844 48.9334C17.8018 49.5514 18.6395 49.8997 19.5136 49.9034H46.6074C47.4813 49.8997 48.3183 49.5514 48.9365 48.9334C49.5547 48.3153 49.9036 47.4784 49.9066 46.6044V19.5124C49.9103 18.6333 49.5642 17.7897 48.9454 17.1664C48.3273 16.5424 47.4859 16.1905 46.6074 16.1867H19.5134ZM59.4179 16.1867C58.535 16.1838 57.687 16.5328 57.063 17.1568C56.4382 17.7815 56.0892 18.6288 56.0922 19.5122V46.6042C56.0959 47.4826 56.4486 48.3232 57.0719 48.9421C57.6952 49.5609 58.5395 49.9069 59.418 49.9032H86.4873C87.3656 49.9069 88.2093 49.5609 88.8334 48.9421C89.4567 48.3233 89.8094 47.4827 89.8124 46.6042V19.5122C89.8161 18.6287 89.4671 17.7814 88.8423 17.1568C88.2183 16.5328 87.3702 16.1838 86.4874 16.1867H59.4179ZM19.5134 56.0961C18.6395 56.0998 17.8017 56.448 17.1843 57.0661C16.5662 57.6842 16.2172 58.5211 16.2135 59.3951V86.4871C16.2105 87.3662 16.5558 88.2098 17.1747 88.8331C17.7935 89.4571 18.6349 89.809 19.5133 89.8127H46.6071C47.4855 89.809 48.3269 89.4571 48.9451 88.8331C49.564 88.2098 49.91 87.3663 49.9063 86.4871V59.3951C49.9033 58.5212 49.5543 57.6843 48.9362 57.0661C48.3181 56.448 47.4811 56.0998 46.6071 56.0961H19.5134ZM59.4179 56.0961C58.5395 56.0924 57.6951 56.4384 57.0717 57.0572C56.4484 57.6761 56.0957 58.5167 56.092 59.3951V72.9419C56.0891 73.8246 56.438 74.6726 57.0628 75.2966C57.6869 75.9213 58.5349 76.2703 59.4177 76.2666H69.6397V86.4879C69.636 87.3714 69.9857 88.2187 70.6097 88.8433C71.2345 89.4674 72.0818 89.8163 72.9646 89.8134H86.4865C87.3694 89.8163 88.2174 89.4674 88.8414 88.8433C89.4662 88.2186 89.8152 87.3713 89.8115 86.4879V72.9419C89.81 72.0621 89.458 71.2192 88.8347 70.5997C88.2107 69.9794 87.3656 69.6326 86.4865 69.6363H76.2711V59.3951C76.2674 58.5205 75.9177 57.6821 75.2981 57.0641C74.6793 56.446 73.8401 56.0978 72.9646 56.0963L59.4179 56.0961ZM3.28057 76.3385C2.39626 76.3466 1.55263 76.7081 0.935934 77.3425C0.320029 77.9769 -0.0163834 78.8308 0.000614165 79.715V102.694C0.00209284 103.574 0.354042 104.417 0.977348 105.036C1.60139 105.657 2.4465 106.003 3.32558 106H26.312C27.4958 105.998 28.5885 105.366 29.18 104.341C29.7715 103.316 29.7715 102.053 29.18 101.028C28.5885 100.003 27.4957 99.3709 26.312 99.3694H6.62477V79.7156C6.64177 78.8203 6.29648 77.956 5.66653 77.3202C5.03584 76.6837 4.17519 76.3303 3.27987 76.3391L3.28057 76.3385ZM102.654 76.3385C101.769 76.3466 100.926 76.7081 100.309 77.3425C99.6931 77.9769 99.3567 78.8308 99.3737 79.715V99.3687L79.713 99.3695C78.8324 99.368 77.988 99.7169 77.3655 100.339C76.7429 100.961 76.3932 101.805 76.3932 102.685C76.3932 103.565 76.743 104.409 77.3655 105.031C77.9881 105.653 78.8324 106.001 79.713 106H102.699C103.575 105.997 104.413 105.647 105.031 105.028C105.649 104.408 105.997 103.57 105.999 102.694V79.7153C106.016 78.8199 105.671 77.9556 105.041 77.3199C104.41 76.6833 103.55 76.3299 102.654 76.3388L102.654 76.3385Z"/>
</svg>
