<svg width="102" height="82" viewBox="0 0 102 82" fill="none" xmlns="http://www.w3.org/2000/svg">
<g clip-path="url(#clip0_1903_5125)">
<path d="M53.3032 1.41406C54.4958 1.41287 55.641 1.88333 56.4854 2.72169C57.3294 3.55961 57.8051 4.69658 57.8091 5.8832C57.8091 5.88264 57.8091 5.88377 57.8091 5.8832V41.352C57.8091 43.8058 55.7937 45.8185 53.3032 45.8185H33.6136H33.205L32.8593 46.0356L16.2231 56.4805V47.2323V45.8185H14.8065H5.92259C3.43212 45.8185 1.41669 43.8058 1.41669 41.352V5.88066C1.41669 3.42671 3.43212 1.41406 5.92259 1.41406H53.3032Z" fill="white"/>
<path d="M57.8091 5.8832C57.8051 4.69658 57.3294 3.55961 56.4854 2.72169C55.641 1.88333 54.4958 1.41287 53.3032 1.41406H5.92259C3.43212 1.41406 1.41669 3.42671 1.41669 5.88066V41.352C1.41669 43.8058 3.43212 45.8185 5.92259 45.8185H14.8065H16.2231V47.2323V56.4805L32.8593 46.0356L33.205 45.8185H33.6136H53.3032C55.7937 45.8185 57.8091 43.8058 57.8091 41.352V5.8832ZM57.8091 5.8832C57.8091 5.88377 57.8091 5.88264 57.8091 5.8832Z" stroke="#212121" stroke-width="2"/>
<path d="M48.6968 24.3711C47.5042 24.3699 46.359 24.8404 45.5146 25.6787C44.6706 26.5166 44.1949 27.6536 44.1909 28.8403C44.1909 28.8397 44.1909 28.8408 44.1909 28.8403V64.3089C44.1909 66.7627 46.2063 68.7754 48.6968 68.7754H68.3865H68.795L69.1407 68.9926L85.7769 79.4377V70.1892V68.7754H87.1936H96.0775C98.568 68.7754 100.583 66.7627 100.583 64.3089V28.8377C100.583 26.3837 98.568 24.3711 96.0775 24.3711H48.6968Z" fill="white"/>
<path d="M44.1909 28.8403C44.1949 27.6536 44.6706 26.5166 45.5146 25.6787C46.359 24.8404 47.5042 24.3699 48.6968 24.3711H96.0775C98.568 24.3711 100.583 26.3837 100.583 28.8377V64.3089C100.583 66.7627 98.568 68.7754 96.0775 68.7754H87.1936H85.7769V70.1892V79.4377L69.1407 68.9926L68.795 68.7754H68.3865H48.6968C46.2063 68.7754 44.1909 66.7627 44.1909 64.3089V28.8403ZM44.1909 28.8403C44.1909 28.8408 44.1909 28.8397 44.1909 28.8403Z" stroke="#212121" stroke-width="2"/>
<path d="M28.4908 21.7447C29.4185 20.0651 31.2021 19.0741 32.2382 17.5878C33.3347 16.0289 32.7202 13.1166 29.6114 13.1166C27.575 13.1166 26.5749 14.6634 26.1531 15.9443L23.0322 14.6271C23.8878 12.0532 26.2134 9.8418 29.5992 9.8418C32.4312 9.8418 34.3711 11.1348 35.3591 12.7541C36.2026 14.1438 36.6967 16.7419 35.3954 18.6753C33.9493 20.8142 32.5635 21.4668 31.8166 22.8444C31.5151 23.4003 31.3947 23.7628 31.3947 25.5513H27.9124C27.9003 24.6087 27.7557 23.074 28.4908 21.7447ZM32.0215 30.3849C32.0215 31.7141 30.9369 32.8019 29.6114 32.8019C28.2859 32.8019 27.2014 31.7141 27.2014 30.3849C27.2014 29.0556 28.2859 27.9681 29.6114 27.9681C30.9369 27.9681 32.0215 29.0556 32.0215 30.3849Z" fill="#212121"/>
<path d="M72.3868 32.7988L73.2096 48.4535H74.8547L75.6772 32.7988H72.3868ZM72.3868 53.6715H75.6772V55.7588H72.3868V53.6715Z" fill="#212121" stroke="#212121" stroke-width="0.4" stroke-miterlimit="10" stroke-linecap="square"/>
</g>
<defs>
<clipPath id="clip0_1903_5125">
<rect width="102" height="82" fill="white"/>
</clipPath>
</defs>
</svg>
