<svg width="35" height="28" viewBox="0 0 35 28" fill="none" xmlns="http://www.w3.org/2000/svg">
<path d="M18.2903 0.500001L18.2908 0.500001C18.6974 0.499595 19.0868 0.659266 19.3737 0.942707C19.6602 1.22587 19.8212 1.60936 19.8226 2.00886C19.8226 2.00906 19.8226 2.00925 19.8226 2.00945L19.8226 14.1201C19.8226 14.9451 19.1406 15.628 18.2903 15.628H11.5341H11.3907L11.2691 15.704L5.58065 19.258V16.128V15.628H5.08065H2.03226C1.18201 15.628 0.5 14.9451 0.5 14.1201V2.00794C0.5 1.18286 1.18201 0.500001 2.03226 0.500001L18.2903 0.500001Z" fill="white" stroke="#212121"/>
<path d="M16.7097 8.33985L16.7092 8.33984C16.3026 8.33944 15.9132 8.49911 15.6263 8.78255C15.3398 9.06572 15.1788 9.44921 15.1774 9.8487C15.1774 9.8489 15.1774 9.8491 15.1774 9.84929L15.1774 21.9599C15.1774 22.785 15.8594 23.4678 16.7097 23.4678H23.4659H23.6093L23.7309 23.5438L29.4194 27.0979V23.9678V23.4678H29.9194H32.9677C33.818 23.4678 34.5 22.785 34.5 21.9599V9.84778C34.5 9.0227 33.818 8.33984 32.9677 8.33984L16.7097 8.33985Z" fill="white" stroke="#212121"/>
<path d="M9.77538 7.4238C10.0938 6.85024 10.7057 6.51188 11.0613 6.00434C11.4375 5.47205 11.2267 4.47761 10.1599 4.47761C9.46114 4.47761 9.11795 5.00578 8.97324 5.44316L7.90234 4.9934C8.19591 4.11449 8.99391 3.35938 10.1558 3.35938C11.1274 3.35938 11.7931 3.80089 12.1322 4.35382C12.4216 4.82834 12.5911 5.7155 12.1446 6.37571C11.6484 7.10607 11.1729 7.32889 10.9166 7.79929C10.8132 7.9891 10.7718 8.11289 10.7718 8.72359H9.57691C9.57277 8.40173 9.52316 7.87769 9.77538 7.4238ZM10.9869 10.3741C10.9869 10.828 10.6147 11.1994 10.1599 11.1994C9.70509 11.1994 9.33296 10.828 9.33296 10.3741C9.33296 9.92022 9.70509 9.54885 10.1599 9.54885C10.6147 9.54885 10.9869 9.92022 10.9869 10.3741Z" fill="#212121"/>
<path d="M24.8379 11.1992L25.1201 16.5447H25.6847L25.9669 11.1992H24.8379ZM24.8379 18.3265H25.9669V19.0392H24.8379V18.3265Z" fill="#212121" stroke="#212121" stroke-width="0.4" stroke-miterlimit="10" stroke-linecap="square"/>
</svg>
