<svg width="28" height="17" viewBox="0 0 28 17" fill="black" xmlns="http://www.w3.org/2000/svg">
  <path d="M27.5065 2.00694C27.3577 1.92622 27.19 1.88787 27.0213 1.89597C26.8526 1.90408 26.6893 1.95835 26.5487 2.05299L22.4 4.84618V1.88889C22.4 1.38792 22.2033 0.907478 21.8533 0.553243C21.5032 0.199007 21.0284 0 20.5333 0H1.86667C1.3716 0 0.896802 0.199007 0.546734 0.553243C0.196666 0.907478 0 1.38792 0 1.88889V15.1111C0 15.6121 0.196666 16.0925 0.546734 16.4468C0.896802 16.801 1.3716 17 1.86667 17H20.5333C21.0284 17 21.5032 16.801 21.8533 16.4468C22.2033 16.0925 22.4 15.6121 22.4 15.1111V12.1597L26.5487 14.9588C26.7028 15.0601 26.8829 15.113 27.0667 15.1111C27.3142 15.1111 27.5516 15.0116 27.7266 14.8345C27.9017 14.6574 28 14.4171 28 14.1667V2.83333C27.9988 2.6634 27.9524 2.49694 27.8655 2.3515C27.7786 2.20606 27.6546 2.08702 27.5065 2.00694ZM20.5333 15.1111H1.86667V1.88889H20.5333V15.1111ZM26.1333 12.4017L22.4 9.88361V7.11639L26.1333 4.60417V12.4017Z"/>
</svg>
