<svg width="33" height="28" viewBox="0 0 33 28" fill="none" xmlns="http://www.w3.org/2000/svg">
<path fill-rule="evenodd" clip-rule="evenodd" d="M19 22H0.711264C0.497933 22 0.295268 21.9042 0.160158 21.7374C0.0250487 21.5706 -0.0282841 21.3542 0.0143821 21.1448L4.28101 0.564194C4.34856 0.237742 4.64011 1.47679e-10 4.97789 1.47679e-10H27.0221C27.1855 -3.32238e-06 27.3439 0.0560569 27.4708 0.15878C27.5977 0.261504 27.6853 0.404643 27.719 0.564194L30.7117 15H29.2575L28.5617 11.6423C28.4728 11.6848 28.3732 11.7097 28.2665 11.7097H16.7111V20.5806H19V22ZM16.7111 10.2903H28.2808L26.4426 1.41935H16.7111V10.2903ZM15.2889 1.41935H5.55744L3.71923 10.2903H15.2889V1.41935ZM3.73346 11.7097C3.62679 11.7097 3.52724 11.6848 3.43835 11.6423L1.58592 20.5806H15.2889V11.7097H3.73346Z" fill="#707070"/>
<path d="M31.4444 19.7778C30.665 18.1333 28.965 17 27 17C26.3434 17 25.6932 17.1293 25.0866 17.3806C24.48 17.6319 23.9288 18.0002 23.4645 18.4645C23.0002 18.9288 22.6319 19.48 22.3806 20.0866C22.1293 20.6932 22 21.3434 22 22C22 22.6566 22.1293 23.3068 22.3806 23.9134C22.6319 24.52 23.0002 25.0712 23.4645 25.5355C23.9288 25.9998 24.48 26.3681 25.0866 26.6194C25.6932 26.8707 26.3434 27 27 27C28.3261 27 29.5979 26.4732 30.5355 25.5355C31.4732 24.5979 32 23.3261 32 22M32 17V20.3333H28.6667" stroke="#707070" stroke-width="1.4"/>
</svg>
