<svg width="82" height="82" viewBox="0 0 82 82" fill="none" xmlns="http://www.w3.org/2000/svg">
<rect width="82" height="82" rx="2" fill="#D9D9D9" fill-opacity="0.15"/>
<rect x="0.5" y="0.5" width="81" height="81" rx="1.5" stroke="black" stroke-opacity="0.3"/>
<path d="M38.2837 41.1365C38.9681 41.1365 39.652 40.7663 40.1312 40.1741C40.8839 39.1379 41.7735 38.1755 42.7314 37.3613C43.7575 36.5471 43.9627 34.9188 43.1418 33.8826C42.3892 32.7726 40.8839 32.5506 39.926 33.4386C38.6259 34.4748 37.4629 35.7329 36.505 37.1394C35.7523 38.2494 35.8893 39.804 36.9154 40.6181C37.2576 40.9145 37.805 41.1365 38.2837 41.1365L38.2837 41.1365Z" fill="black"/>
<path d="M32.5372 49.5683C32.5372 50.9748 33.5634 52.0847 34.8634 52.0847C36.1636 52.0847 37.1896 50.9747 37.1896 49.5683C37.1896 48.828 37.2579 48.0881 37.3266 47.4221C37.5318 46.0901 36.6422 44.7575 35.3426 44.6094H34.9322H34.5217C33.2216 44.7576 32.332 46.0158 32.469 47.3478C32.4685 48.0882 32.5372 48.828 32.5372 49.5685L32.5372 49.5683Z" fill="black"/>
<path d="M28.6365 37.1407C29.1157 37.8067 29.7997 38.1031 30.484 38.1031C30.9632 38.1031 31.4419 37.9549 31.8524 37.5847C32.8785 36.7705 33.0837 35.1422 32.2628 34.106C30.9627 32.2556 29.4574 30.6272 27.7469 29.2208C26.7208 28.4066 25.2837 28.6286 24.5311 29.6648C23.7784 30.7748 23.9836 32.3294 24.9415 33.1435C26.3786 34.3284 27.6104 35.6605 28.6365 37.1407L28.6365 37.1407Z" fill="black"/>
<path d="M73.1787 31.5855C73.1787 36.3277 69.6249 40.1715 65.2417 40.1715C60.8584 40.1715 57.3047 36.3277 57.3047 31.5855C57.3047 26.8438 60.8584 23 65.2417 23C69.6249 23 73.1787 26.8438 73.1787 31.5855" fill="black"/>
<path d="M71.6738 54.6797H11.3262C10.0261 54.6797 9 55.7897 9 57.1961C9 58.6025 10.0261 59.7125 11.3262 59.7125H71.6738C72.9739 59.7125 74 58.6025 74 57.1961C74 55.7897 72.9739 54.6797 71.6738 54.6797Z" fill="black"/>
<path d="M13.5169 29.0724C15.1591 29.0724 16.8697 29.2944 18.4432 29.7385C18.6485 29.8123 18.8537 29.8123 19.0589 29.8123C20.085 29.8123 21.0429 29.0719 21.3168 27.9619C21.659 26.6299 20.9064 25.2234 19.6746 24.9271C17.6906 24.3349 15.6379 24.0391 13.5851 24.0391C12.285 24.0391 11.2589 25.1491 11.2589 26.5555C11.1906 27.888 12.285 29.0724 13.5168 29.0724L13.5169 29.0724Z" fill="black"/>
<path d="M48.4115 34.399C48.5485 34.399 48.685 34.399 48.822 34.3251C49.6429 34.177 50.5325 34.1031 51.3534 34.1031C52.6535 34.1031 53.6796 32.9931 53.6796 31.5867C53.6796 30.1803 52.6535 29.0703 51.3534 29.0703C50.2586 29.0703 49.0955 29.1441 48.0007 29.3662C46.7693 29.5882 45.8797 30.9208 46.1532 32.2528C46.3593 33.5848 47.3172 34.399 48.4115 34.399L48.4115 34.399Z" fill="black"/>
</svg>
